<?xml version="1.0" encoding="utf-8"?>
<!-- Generator: Adobe Illustrator 15.0.0, SVG Export Plug-In . SVG Version: 6.00 Build 0)  -->
<!DOCTYPE svg PUBLIC "-//W3C//DTD SVG 1.1//EN" "http://www.w3.org/Graphics/SVG/1.1/DTD/svg11.dtd">
<svg version="1.1" id="Layer_1" xmlns:sketch="http://www.bohemiancoding.com/sketch/ns"
	 xmlns="http://www.w3.org/2000/svg" xmlns:xlink="http://www.w3.org/1999/xlink" x="0px" y="0px" width="29px" height="29px"
	 viewBox="0 0 29 29" enable-background="new 0 0 29 29" xml:space="preserve">
<title>search</title>
<desc>Created with Sketch.</desc>
<path fill="#D9D9D9" d="M19.916,21.018C17.805,22.875,15.033,24,12,24C5.373,24,0,18.627,0,12S5.373,0,12,0s12,5.373,12,12
	c0,2.915-1.039,5.587-2.768,7.666l5.867,5.867c0.789,0.789,0.82,2.016,0.084,2.752l1.334-1.334c-0.697,0.699-1.97,0.699-2.752-0.084
	L19.916,21.018z"/>
<path fill="#FFFFFF" d="M19.047,19.096C17.238,20.891,14.749,22,12,22C6.477,22,2,17.523,2,12C2,6.477,6.477,2,12,2
	c5.523,0,10,4.477,10,10c0,2.643-1.025,5.046-2.699,6.834c-0.402,0.047-0.783,0.215-1.068,0.5L19.566,18
	C19.264,18.305,19.09,18.689,19.047,19.096z"/>
</svg>
